<svg width="16" height="16" viewBox="0 0 16 16" fill="none" xmlns="http://www.w3.org/2000/svg">
<g clip-path="url(#clip0_1_206)">
<path d="M15.8573 7.32133H13.6751C13.3662 4.70711 11.2929 2.63378 8.67867 2.32489V0.142667C8.67855 0.104788 8.66342 0.0685015 8.63659 0.041759C8.60977 0.0150165 8.57343 -1.82656e-07 8.53556 0L7.46444 0C7.42657 -1.82656e-07 7.39023 0.0150165 7.36341 0.041759C7.33658 0.0685015 7.32145 0.104788 7.32133 0.142667V2.32489C4.70711 2.63378 2.63378 4.70711 2.32489 7.32133H0.142667C0.104788 7.32145 0.0685015 7.33658 0.041759 7.36341C0.0150165 7.39023 -1.82656e-07 7.42657 0 7.46444L0 8.53556C0 8.61422 0.0644444 8.67867 0.142667 8.67867H2.32489C2.63378 11.2929 4.70711 13.3662 7.32133 13.6751V15.8573C7.32133 15.9356 7.38578 16 7.46444 16H8.53556C8.57343 16 8.60977 15.985 8.63659 15.9582C8.66342 15.9315 8.67855 15.8952 8.67867 15.8573V13.6751C11.2929 13.3662 13.3662 11.2929 13.6751 8.67867H15.8573C15.8952 8.67855 15.9315 8.66342 15.9582 8.63659C15.985 8.60977 16 8.57343 16 8.53556V7.46444C16 7.42657 15.985 7.39023 15.9582 7.36341C15.9315 7.33658 15.8952 7.32145 15.8573 7.32133ZM8 12.3569C7.42777 12.3571 6.86112 12.2445 6.33242 12.0256C5.80371 11.8067 5.32331 11.4858 4.91867 11.0812C4.51402 10.6766 4.19306 10.1962 3.97412 9.66755C3.75518 9.13887 3.64255 8.57223 3.64267 8C3.64249 7.42774 3.75508 6.86105 3.97399 6.33231C4.19291 5.80358 4.51386 5.32316 4.91851 4.91851C5.32316 4.51386 5.80358 4.19291 6.33231 3.97399C6.86105 3.75508 7.42774 3.64249 8 3.64267C8.57226 3.64249 9.13895 3.75508 9.66769 3.97399C10.1964 4.19291 10.6768 4.51386 11.0815 4.91851C11.4861 5.32316 11.8071 5.80358 12.026 6.33231C12.2449 6.86105 12.3575 7.42774 12.3573 8C12.3575 8.57226 12.2449 9.13895 12.026 9.66769C11.8071 10.1964 11.4861 10.6768 11.0815 11.0815C10.6768 11.4861 10.1964 11.8071 9.66769 12.026C9.13895 12.2449 8.57226 12.3575 8 12.3573V12.3569Z" fill="white"/>
<path d="M8.0001 5.85956C7.42676 5.85956 6.89121 6.08089 6.48632 6.48801C6.28641 6.68615 6.12787 6.92206 6.01991 7.182C5.91194 7.44195 5.85672 7.72075 5.85743 8.00223C5.85672 8.2837 5.91194 8.56251 6.01991 8.82245C6.12787 9.0824 6.28641 9.3183 6.48632 9.51645C6.68481 9.71575 6.92072 9.87387 7.1805 9.98172C7.44028 10.0896 7.71882 10.145 8.0001 10.1449C8.28151 10.1455 8.56024 10.0902 8.82016 9.98235C9.08007 9.87448 9.31601 9.71612 9.51432 9.51645C9.71367 9.31791 9.87182 9.08192 9.97967 8.82206C10.0875 8.5622 10.1429 8.28358 10.1428 8.00223C10.1433 7.72082 10.0881 7.44208 9.98022 7.18217C9.87234 6.92225 9.71399 6.68631 9.51432 6.48801C9.31641 6.28777 9.08055 6.12902 8.82055 6.02104C8.56055 5.91306 8.28163 5.85801 8.0001 5.85912V5.85956Z" fill="white"/>
</g>
<defs>
<clipPath id="clip0_1_206">
<rect width="16" height="16" fill="white"/>
</clipPath>
</defs>
</svg>
