<?xml version="1.0" encoding="UTF-8"?> <svg xmlns="http://www.w3.org/2000/svg" xmlns:xlink="http://www.w3.org/1999/xlink" width="105px" height="105px" viewBox="0 0 105 105" version="1.1"><title>Commerce Media Platform_Icon 02</title><g id="COmmerce-media-" stroke="none" stroke-width="1" fill="none" fill-rule="evenodd"><g id="Commerce-Media-Platform-v2" transform="translate(-973.000000, -2995.000000)"><g id="Commerce-Media-Platform_Icon-02" transform="translate(973.000000, 2995.000000)"><rect id="Rectangle" fill-opacity="0" fill="#FFFFFF" x="0" y="0" width="105" height="105"></rect><g id="channel" transform="translate(0.000000, 31.000000)" fill-rule="nonzero"><path d="M6.54545455,43.6363636 C2.93049982,43.6363636 -1.93784382e-15,40.7058638 -1.93784382e-15,37.0909091 C-1.93784382e-15,33.4759544 2.93049982,30.5454545 6.54545455,30.5454545 C10.1604093,30.5454545 13.0909091,33.4759544 13.0909091,37.0909091 C13.086965,40.7042289 10.1587743,43.6324195 6.54545455,43.6363636 L6.54545455,43.6363636 Z" id="Path" fill="#FFCEBC"></path><path d="M20.2457455,28.4050909 C19.9506149,27.9073685 19.4697025,27.5474104 18.908975,27.4045315 C18.3482476,27.2616527 17.7537197,27.3475781 17.2563927,27.6433745 L10.3225745,31.7635855 C11.5444034,32.636861 12.4285969,33.9039048 12.8267127,35.352 L19.4850764,31.3956 C20.5207975,30.7797435 20.8613282,29.4409748 20.2457455,28.4050909 L20.2457455,28.4050909 Z" id="Path" fill="#FFB59B"></path><path d="M41.4545455,43.6363636 C37.8395907,43.6363636 34.9090909,40.7058638 34.9090909,37.0909091 C34.9090909,33.4759544 37.8395907,30.5454545 41.4545455,30.5454545 C45.0695002,30.5454545 48,33.4759544 48,37.0909091 C47.9960559,40.7042289 45.0678652,43.6324195 41.4545455,43.6363636 L41.4545455,43.6363636 Z" id="Path" fill="#FFCEBC"></path><path d="M37.6775127,31.7636727 L30.7436945,27.6434618 C30.0734396,27.2453458 29.2417062,27.2350482 28.5618001,27.616448 C27.8818941,27.9978478 27.4571094,28.7130013 27.4474583,29.4925171 C27.4378072,30.2720329 27.844756,30.997484 28.5150109,31.3956 L35.1732873,35.352 C35.5714095,33.903908 36.4556406,32.6368853 37.6775127,31.7636727 Z" id="Path" fill="#FFB59B"></path><path d="M24,13.0909091 C20.3850453,13.0909091 17.4545455,10.1604093 17.4545455,6.54545455 C17.4545455,2.93049982 20.3850453,-9.68921912e-16 24,-9.68921912e-16 C27.6149547,-9.68921912e-16 30.5454545,2.93049982 30.5454545,6.54545455 C30.5415104,10.1587743 27.6133198,13.086965 24,13.0909091 Z" id="Path" fill="#FFCEBC"></path><path d="M24,13.0909091 C23.2549937,13.0834972 22.5168675,12.9474384 21.8181818,12.6887345 L21.8181818,19.6363636 C21.8181818,20.8413485 22.7950151,21.8181818 24,21.8181818 C25.2049849,21.8181818 26.1818182,20.8413485 26.1818182,19.6363636 L26.1818182,12.6888655 C25.4831279,12.9475365 24.7449998,13.0835514 24,13.0909091 Z" id="Path" fill="#FFB59B"></path><circle id="Oval" fill="#FF8559" cx="24" cy="26.1818182" r="6.54545455"></circle><path d="M24,34.9090909 C19.1800604,34.9090909 15.2727273,31.0017578 15.2727273,26.1818182 C15.2727273,21.3618785 19.1800604,17.4545455 24,17.4545455 C28.8199396,17.4545455 32.7272727,21.3618785 32.7272727,26.1818182 C32.7221379,30.9996293 28.8178111,34.9039561 24,34.9090909 L24,34.9090909 Z M24,21.8181818 C21.5900302,21.8181818 19.6363636,23.7718484 19.6363636,26.1818182 C19.6363636,28.591788 21.5900302,30.5454545 24,30.5454545 C26.4099698,30.5454545 28.3636364,28.591788 28.3636364,26.1818182 C28.360883,23.7729898 26.4088284,21.8209352 24,21.8181818 Z" id="Shape" fill="#FF8559"></path></g></g></g></g></svg> 