<?xml version="1.0" encoding="UTF-8"?> <svg xmlns="http://www.w3.org/2000/svg" xmlns:xlink="http://www.w3.org/1999/xlink" width="105px" height="105px" viewBox="0 0 105 105" version="1.1"><title>Commerce Media Platform_Icon 03</title><g id="COmmerce-media-" stroke="none" stroke-width="1" fill="none" fill-rule="evenodd"><g id="Commerce-Media-Platform-v2" transform="translate(-687.000000, -3495.000000)"><g id="Commerce-Media-Platform_Icon-03" transform="translate(687.000000, 3495.000000)"><rect id="Rectangle" fill-opacity="0" fill="#FFFFFF" x="0" y="0" width="105" height="105"></rect><g id="users-alt-(1)" transform="translate(0.000000, 34.000000)" fill-rule="nonzero"><path d="M37.75968,19.0285963 C35.8335491,20.7413891 33.3250691,21.8149963 30.5454545,21.8181818 C29.9528509,21.8181818 29.3745163,21.7633091 28.8097527,21.6697091 C28.7501018,21.6184363 28.6805891,21.5794254 28.6201309,21.52896 C32.4548072,24.7280291 34.9090909,29.5240581 34.9090909,34.9090909 C34.9093527,36.1137163 33.9330981,37.0906472 32.7284727,37.0909091 L45.8181818,37.0909091 C45.8185745,37.0909091 45.818989,37.0909091 45.8193818,37.0909091 C47.0240072,37.0906472 48.0002618,36.1137163 48,34.9090909 C48,27.8450836 43.7955054,21.7755709 37.75968,19.0285963 Z" id="Path" fill="#FF8559"></path><path d="M17.4545454,21.8181818 C11.4296291,21.8181818 6.54545454,16.9340073 6.54545454,10.9090909 C6.54545454,4.88417454 11.4296291,0 17.4545454,0 C23.4794618,0 28.3636363,4.88417454 28.3636363,10.9090909 C28.3565672,16.9310836 23.4765382,21.8111127 17.4545454,21.8181818 Z" id="Path" fill="#FFCEBC"></path><path d="M17.4545454,21.8181818 C11.4296291,21.8181818 6.54545454,16.9340073 6.54545454,10.9090909 C6.54545454,4.88417454 11.4296291,0 17.4545454,0 C23.4794618,0 28.3636363,4.88417454 28.3636363,10.9090909 C28.3565672,16.9310836 23.4765382,21.8111127 17.4545454,21.8181818 Z" id="Path" fill="#FFCEBC"></path><path d="M24.6687709,19.0285963 C22.74264,20.7413891 20.23416,21.8149963 17.4545454,21.8181818 C14.6728145,21.8181818 12.1621964,20.7448582 10.2352582,19.0309745 C4.20224727,21.77904 0,27.8470691 0,34.9090909 C0,34.9094836 0,34.9098981 0,34.9102909 C0,36.1149163 0.977192726,37.0911709 2.18181818,37.0909091 L32.7272727,37.0909091 C32.7276654,37.0909091 32.72808,37.0909091 32.7284727,37.0909091 C33.9330981,37.0906472 34.9090909,36.1137163 34.9090909,34.9090909 C34.9090909,27.8450836 30.7045963,21.7755709 24.6687709,19.0285963 Z" id="Path" fill="#FFB59B"></path><path d="M30.5454545,0 C28.0779927,0 25.8276,0.850014545 24,2.23121454 C24.5960509,2.68171636 25.1360509,3.19082181 25.6277018,3.75185454 C25.7652654,3.90739636 25.8948436,4.06865454 26.0234836,4.23165818 C26.2907563,4.57402909 26.5398982,4.92438545 26.7653672,5.29767272 C26.96712,5.62686545 27.1522254,5.96576727 27.3185454,6.31679999 C27.4112291,6.51575999 27.5041745,6.7112509 27.5850109,6.9164509 C27.7959491,7.44246545 27.966,7.98737454 28.0925018,8.55080726 C28.1220654,8.68463999 28.1421818,8.82019635 28.1668145,8.95590544 C28.284,9.59085817 28.3636363,10.23912 28.3636363,10.9090909 C28.3628291,11.59584 28.2841309,12.2612727 28.1598982,12.9102109 C28.14192,13.0064727 28.1313818,13.1042182 28.1108945,13.1995636 C27.9899782,13.7484873 27.8173963,14.2760945 27.6160363,14.7898473 C27.5367927,14.9964 27.4594254,15.2009454 27.3682036,15.4012145 C27.1860218,15.7931345 26.9780291,16.17 26.7520363,16.5351273 C26.1835418,17.4716945 25.4826763,18.3048 24.6682254,19.0289673 C26.1758182,19.7149091 27.5683418,20.6039345 28.8097309,21.6696872 C29.3745163,21.7633091 29.9528509,21.8181818 30.5454545,21.8181818 C36.5674254,21.8111345 41.4474981,16.9310618 41.4545454,10.9090909 C41.4545454,4.88419636 36.5703491,0 30.5454545,0 Z" id="Path" fill="#FF9D7A"></path></g></g></g></g></svg> 