<?xml version="1.0" encoding="UTF-8"?> <svg xmlns="http://www.w3.org/2000/svg" xmlns:xlink="http://www.w3.org/1999/xlink" width="105px" height="105px" viewBox="0 0 105 105" version="1.1"><title>Commerce Media Platform_Icon 01</title><g id="COmmerce-media-" stroke="none" stroke-width="1" fill="none" fill-rule="evenodd"><g id="Commerce-Media-Platform-v2" transform="translate(-687.000000, -2995.000000)"><g id="Commerce-Media-Platform_Icon-01" transform="translate(687.000000, 2995.000000)"><rect id="Rectangle" fill-opacity="0" fill="#FFFFFF" x="0" y="0" width="105" height="105"></rect><g id="pathfinder" transform="translate(0.000000, 29.000000)" fill-rule="nonzero"><path d="M22.6335864,18.1266041 C22.1238124,18.1297112 21.6271725,17.9649883 21.2203249,17.6578165 C20.7093941,17.2886341 20.3682139,16.7296535 20.2734399,16.106465 C20.1786659,15.4832766 20.3382459,14.8481408 20.7163258,14.3437584 L20.7889737,14.2477586 C21.2429937,13.6480533 21.9518185,13.2957774 22.7040023,13.2959948 C24.0417694,13.290484 25.1369296,14.3585266 25.1649339,15.696012 C25.1874144,16.8894836 24.3150597,17.9117607 23.1329055,18.0772638 C22.9684841,18.1100236 22.8012396,18.126535 22.6335864,18.1266041 Z M34.2913978,18.0960078 L34.0124943,18.0960078 C32.6870132,18.0960078 31.6124985,17.0214931 31.6124985,15.696012 C31.6124985,14.3705309 32.6870132,13.2960162 34.0124943,13.2960162 L34.2913978,13.2960162 C35.6168789,13.2960162 36.6913936,14.3705309 36.6913936,15.696012 C36.6913936,17.0214931 35.6168789,18.0960078 34.2913978,18.0960078 Z M45.5999618,18.1570396 C44.6360389,18.1699493 43.7591956,17.6011065 43.3780937,16.7156262 C43.2217493,16.3985436 43.1407408,16.0496395 43.1413822,15.696108 C43.1272519,15.0659196 43.3671675,14.4565281 43.8071225,14.0051117 C44.2470774,13.5536953 44.8500986,13.2981902 45.480442,13.2961118 L45.5999618,13.2961118 C46.2365935,13.2957427 46.8472566,13.54848 47.2974232,13.9986466 C47.7475899,14.4488133 48.0003271,15.0594763 47.9999789,15.696108 C48.0054769,17.0338699 46.9374417,18.1290225 45.5999618,18.1570396 Z M45.5999618,38.1538767 C44.9633301,38.1542459 44.3526671,37.9015086 43.9025004,37.4513419 C43.4523338,37.0011753 43.1995965,36.3905122 43.1999657,35.7538805 L43.1999657,35.510137 C43.1999657,34.1846559 44.2744808,33.1101412 45.5999618,33.1101412 C46.9254429,33.1101412 47.999958,34.1846559 47.999958,35.510137 L47.999958,35.7538805 C48.0003271,36.3905122 47.7475899,37.0011753 47.2974232,37.4513419 C46.8472566,37.9015086 46.2365935,38.1542459 45.5999618,38.1538767 L45.5999618,38.1538767 Z M45.5999618,28.1859263 C44.9633301,28.1862955 44.3526671,27.9335582 43.9025004,27.4833915 C43.4523338,27.0332249 43.1995965,26.4225618 43.1999657,25.7859302 L43.1999657,25.5421866 C43.1999657,24.2167055 44.2744808,23.1421908 45.5999618,23.1421908 C46.9254429,23.1421908 47.999958,24.2167055 47.999958,25.5421866 L47.999958,25.7859302 C48.0003271,26.4225618 47.7475899,27.0332249 47.2974232,27.4833915 C46.8472566,27.9335582 46.2365935,28.1862955 45.5999618,28.1859263 L45.5999618,28.1859263 Z M45.5999618,47.9999748 C44.2626645,48.0052968 43.168287,46.9369964 43.1413822,45.5999591 C43.1275261,44.6364442 43.6955177,43.759482 44.5804436,43.3780911 C44.8975262,43.2217467 45.2464303,43.1407381 45.5999618,43.1413795 C46.2301503,43.1272492 46.8395417,43.3671648 47.2909581,43.8071198 C47.7423745,44.2470747 47.9978796,44.8500959 47.999958,45.4804393 L47.999958,45.5999591 C48.0003208,46.2365889 47.7475814,46.8472482 47.2974162,47.2974135 C46.8472509,47.7475787 46.2365915,48.0003181 45.5999618,47.9999748 L45.5999618,47.9999748 Z M35.7538832,47.9999549 L35.5101397,47.9999549 C34.1846586,47.9999549 33.1101439,46.9254402 33.1101439,45.5999591 C33.1101439,44.2744781 34.1846586,43.1999634 35.5101397,43.1999634 L35.7538832,43.1999634 C37.0793643,43.1999634 38.153879,44.2744781 38.153879,45.5999591 C38.153879,46.9254402 37.0793643,47.9999549 35.7538832,47.9999549 Z M25.7859328,47.9999549 L25.5421893,47.9999549 C24.2167082,47.9999549 23.1421935,46.9254402 23.1421935,45.5999591 C23.1421935,44.2744781 24.2167082,43.1999634 25.5421893,43.1999634 L25.7859328,43.1999634 C27.1114139,43.1999634 28.1859286,44.2744781 28.1859286,45.5999591 C28.1859286,46.9254402 27.1114139,47.9999549 25.7859328,47.9999549 Z M15.8156305,47.9999553 L15.6960147,47.9999553 C15.059383,48.0003245 14.4487199,47.7475872 13.9985533,47.2974205 C13.5483866,46.8472539 13.2956494,46.2365908 13.2959989,45.5999591 C13.2906641,44.2626566 14.3589719,43.1682715 15.6960147,43.1413795 C16.6595296,43.1275234 17.5364918,43.695515 17.9178828,44.5804409 C18.075015,44.8973412 18.1568603,45.2462413 18.1570423,45.5999591 C18.1706376,46.2303988 17.9302245,46.8398382 17.4898757,47.2912049 C17.0495269,47.7425716 16.4462135,47.9979692 15.8156305,47.9999553 Z M15.6960147,37.392166 C15.059383,37.3925352 14.4487199,37.1397979 13.9985533,36.6896313 C13.5483866,36.2394646 13.2956494,35.6288016 13.2960185,34.9921699 L13.2960185,34.7296583 C13.2960185,33.8722224 13.7534555,33.079919 14.4960168,32.651201 C15.2385781,32.222483 16.1534513,32.222483 16.8960126,32.651201 C17.6385739,33.079919 18.0960108,33.8722224 18.0960108,34.7296583 L18.0960108,34.9921699 C18.0963736,35.6287996 17.8436343,36.239459 17.393469,36.6896242 C16.9433038,37.1397895 16.3326444,37.3925288 15.6960147,37.392166 L15.6960147,37.392166 Z M16.2093018,26.8125056 C15.3047459,26.8123435 14.4771346,26.303547 14.0686469,25.4964787 C13.6601593,24.6894105 13.7402082,23.721213 14.2756972,22.9921911 L14.4304009,22.7812555 C14.9378272,22.0895876 15.7757088,21.7211689 16.6284238,21.814779 C17.4811389,21.9083892 18.2191397,22.4498066 18.5644284,23.2350845 C18.9097172,24.0203625 18.8098364,24.9301986 18.3024101,25.6218665 L18.1477063,25.8328021 C17.6945189,26.4494467 16.9746617,26.8132927 16.2093978,26.8125056 L16.2093018,26.8125056 Z M22.7040023,34.7039998 C21.3662352,34.7095106 20.271075,33.641468 20.2430706,32.3039826 C20.2216573,31.1457046 21.0437004,30.1429642 22.1836832,29.9367948 C22.7842091,29.7871636 23.4193605,29.876222 23.9555761,30.1852424 C24.5048605,30.4946131 24.9069885,31.0115059 25.0717788,31.6200022 C25.2365691,32.2284985 25.1502309,32.8776756 24.8321265,33.4219487 L24.7711906,33.5251485 C24.3387325,34.2556551 23.5529192,34.7037711 22.7040023,34.7039998 Z" id="Shape" fill="#FFB59B"></path><path d="M12.67502,34.7039784 L12.4265725,34.7039784 C11.1010914,34.7039784 10.0265767,33.6294637 10.0265767,32.3039826 C10.0265767,30.9785016 11.1010914,29.9039869 12.4265725,29.9039869 L12.67502,29.9039869 C14.0005011,29.9039869 15.0750158,30.9785016 15.0750158,32.3039826 C15.0750158,33.6294637 14.0005011,34.7039784 12.67502,34.7039784 Z M2.51955797,34.7039788 L2.40003818,34.7039788 C1.76340651,34.704348 1.15274345,34.4516107 0.702576799,34.001444 C0.252410149,33.5512774 -0.000327141035,32.9406143 2.11316546e-05,32.3039826 C-0.00547687006,30.9662207 1.06255833,29.8710681 2.40003818,29.843051 C3.36396107,29.8301413 4.24080435,30.3989842 4.62190626,31.2844644 C4.77825066,31.601547 4.85925918,31.9504512 4.85861784,32.3039826 C4.87274813,32.9341711 4.6328325,33.5435625 4.19287755,33.9949789 C3.7529226,34.4463954 3.14990138,34.7019005 2.51955797,34.7039788 L2.51955797,34.7039788 Z M2.40003818,24.8578042 C1.76340651,24.8581734 1.15274345,24.6054361 0.702576799,24.1552694 C0.252410149,23.7051028 -0.000327141035,23.0944397 4.20222201e-05,22.457808 L4.20222201e-05,22.2140645 C4.20222201e-05,20.8885834 1.07455713,19.8140687 2.40003818,19.8140687 C3.72551924,19.8140687 4.80003435,20.8885834 4.80003435,22.2140645 L4.80003435,22.457808 C4.80040351,23.0944397 4.54766622,23.7051028 4.09749957,24.1552694 C3.64733292,24.6054361 3.03666986,24.8581734 2.40003818,24.8578042 Z M2.40003818,14.8898538 C1.76340651,14.890223 1.15274345,14.6374857 0.702576799,14.1873191 C0.252410149,13.7371524 -0.000327141035,13.1264893 4.20222201e-05,12.4898577 L4.20222201e-05,12.2461141 C4.20222201e-05,10.920633 1.07455713,9.84611834 2.40003818,9.84611834 C3.72551924,9.84611834 4.80003435,10.920633 4.80003435,12.2461141 L4.80003435,12.4898577 C4.80040351,13.1264893 4.54766622,13.7371524 4.09749957,14.1873191 C3.64733292,14.6374857 3.03666986,14.890223 2.40003818,14.8898538 Z M2.40003818,4.85861516 C1.76984974,4.87274544 1.16045829,4.63282981 0.709041882,4.19287487 C0.25762547,3.75291992 0.00212035366,3.1498987 4.2036064e-05,2.51955529 L4.2036064e-05,2.4000355 C-0.000320762603,1.76340578 0.252418576,1.15274643 0.702583842,0.702581159 C1.15274911,0.252415893 1.76340846,-0.000323445361 2.40003818,1.979792e-05 C3.73733545,-0.00530214575 4.83171305,1.06299823 4.85861784,2.4000355 C4.87247392,3.36355039 4.30448228,4.24051259 3.41955638,4.62190357 C3.10247383,4.77824798 2.75356966,4.8592565 2.40003818,4.85861516 L2.40003818,4.85861516 Z M22.4578107,4.80003126 L22.2140672,4.80003126 C20.8885861,4.80003126 19.8140714,3.72551656 19.8140714,2.4000355 C19.8140714,1.07455445 20.8885861,3.97441959e-05 22.2140672,3.97441959e-05 L22.4578107,3.97441959e-05 C23.7832918,3.97441959e-05 24.8578065,1.07455445 24.8578065,2.4000355 C24.8578065,3.72551656 23.7832918,4.80003126 22.4578107,4.80003126 Z M12.4898603,4.80003126 L12.2461168,4.80003126 C10.9206357,4.80003126 9.84612102,3.72551656 9.84612102,2.4000355 C9.84612102,1.07455445 10.9206357,3.97441959e-05 12.2461168,3.97441959e-05 L12.4898603,3.97441959e-05 C13.8153414,3.97441959e-05 14.8898561,1.07455445 14.8898561,2.4000355 C14.8898561,3.72551656 13.8153414,4.80003126 12.4898603,4.80003126 Z M32.3039853,4.85861516 C31.3404704,4.87247124 30.4635082,4.3044796 30.0821172,3.4195537 C29.924985,3.10265339 29.8431397,2.75375333 29.8429577,2.4000355 C29.8293624,1.76959587 30.0697755,1.16015642 30.5101243,0.70878974 C30.9504731,0.257423059 31.5537865,0.00202540195 32.1843695,3.93394623e-05 L32.3039853,3.93394623e-05 C32.940617,-0.000329823793 33.5512801,0.252407466 34.0014467,0.702574116 C34.4516134,1.15274077 34.7043506,1.76340383 34.7040011,2.4000355 C34.7093359,3.737338 33.6410281,4.83172315 32.3039853,4.85861516 Z M28.0523448,25.4484466 C27.1973351,25.4474353 26.4074186,24.9916572 25.9786472,24.251929 C25.5498757,23.5122008 25.546998,22.6002285 25.9710925,21.8578091 L26.1023483,21.6281295 C26.5264128,20.8811328 27.3173935,20.4177571 28.176354,20.4130915 C29.0353146,20.4084959 29.8312453,20.8633167 30.2633389,21.6056978 C30.6954325,22.348079 30.6977856,23.2647916 30.2695089,24.0093813 L30.1382771,24.2390609 C29.7112062,24.988132 28.9146062,25.4499847 28.0523448,25.4484466 Z M32.3039853,15.7546923 C31.6673536,15.7550615 31.0566906,15.5023242 30.6065239,15.0521575 C30.1563573,14.6019909 29.90362,13.9913278 29.9039892,13.3546961 L29.9039892,13.0898566 C29.9039892,12.2324207 30.3614261,11.4401172 31.1039874,11.0113992 C31.8465487,10.5826813 32.7614219,10.5826813 33.5039832,11.0113992 C34.2465445,11.4401172 34.7039815,12.2324207 34.7039815,13.0898566 L34.7039815,13.3546961 C34.7043506,13.9913278 34.4516134,14.6019909 34.0014467,15.0521575 C33.5512801,15.5023242 32.940617,15.7550615 32.3039853,15.7546923 L32.3039853,15.7546923 Z" id="Shape" fill="#FFB59B"></path><path d="M32.3085693,34.7085628 L15.6914307,34.7085628 C15.054799,34.708932 14.444136,34.4561947 13.9939693,34.006028 C13.5438027,33.5558614 13.2910654,32.9451983 13.2914345,32.3085666 L13.2914345,15.691428 C13.2910654,15.0547963 13.5438027,14.4441333 13.9939693,13.9939666 C14.444136,13.5438 15.054799,13.2910627 15.6914307,13.2914318 L32.3085693,13.2914318 C32.945201,13.2910627 33.555864,13.5438 34.0060307,13.9939666 C34.4561973,14.4441333 34.7089346,15.0547963 34.7085655,15.691428 L34.7085655,32.3085666 C34.7089346,32.9451983 34.4561973,33.5558614 34.0060307,34.006028 C33.555864,34.4561947 32.945201,34.708932 32.3085693,34.7085628 Z M18.0914264,29.9085709 L29.9085736,29.9085709 L29.9085736,18.0914238 L18.0914264,18.0914238 L18.0914264,29.9085709 Z" id="Shape" fill="#FF8559"></path><path d="M32.3085693,34.7085628 L15.6914307,34.7085628 C15.054799,34.708932 14.444136,34.4561947 13.9939693,34.006028 C13.5438027,33.5558614 13.2910654,32.9451983 13.2914345,32.3085666 L13.2914345,15.691428 C13.2910654,15.0547963 13.5438027,14.4441333 13.9939693,13.9939666 C14.444136,13.5438 15.054799,13.2910627 15.6914307,13.2914318 L32.3085693,13.2914318 C32.945201,13.2910627 33.555864,13.5438 34.0060307,13.9939666 C34.4561973,14.4441333 34.7089346,15.0547963 34.7085655,15.691428 L34.7085655,32.3085666 C34.7089346,32.9451983 34.4561973,33.5558614 34.0060307,34.006028 C33.555864,34.4561947 32.945201,34.708932 32.3085693,34.7085628 Z" id="Path" fill="#FF8559"></path></g></g></g></g></svg> 